<?xml version="1.0" standalone="no"?><!DOCTYPE svg PUBLIC "-//W3C//DTD SVG 1.1//EN" "http://www.w3.org/Graphics/SVG/1.1/DTD/svg11.dtd">
<svg t="1713684394921"
     class="icon"
     viewBox="0 0 1024 1024"
     version="1.1"
     xmlns="http://www.w3.org/2000/svg"
     p-id="1506"
     xmlns:xlink="http://www.w3.org/1999/xlink"
     width="200"
     height="200">
    <path
        d="M291.11 225.2m-75.51 0a75.51 75.51 0 1 0 151.02 0 75.51 75.51 0 1 0-151.02 0Z"
        fill="#050500"
        p-id="1507"></path>
    <path
        d="M869.08 391.27m-52.42 0a52.42 52.42 0 1 0 104.84 0 52.42 52.42 0 1 0-104.84 0Z"
        fill="#050500"
        p-id="1508"></path>
    <path
        d="M402.18 618.33l-75.22 13.82c-15.67 2.88-30.71-7.49-33.59-23.16l-44.16-240.32c-2.88-15.67 7.49-30.71 23.16-33.59l75.22-13.82c15.67-2.88 30.71 7.49 33.59 23.16l44.16 240.32c2.88 15.68-7.49 30.72-23.16 33.59z"
        fill="#050500"
        p-id="1509"></path>
    <path
        d="M180.1 826.89c-26.63 0-46.07-4.9-50.46-6.11-17.34-4.79-27.5-22.73-22.73-40.07 4.77-17.32 22.64-27.43 40.07-22.73 2.67 0.78 66.04 17.6 115.1-25.61 34.37-30.3 48.74-77.47 37.48-123.07-4.32-17.45 6.34-35.11 23.81-39.41 17.34-4.37 35.09 6.36 39.41 23.81 17.11 69.24-4.98 141.11-57.64 187.54-42.08 37.06-89.84 45.65-125.04 45.65zM513.25 934.67c-1.4 0-2.82-0.08-4.24-0.28-17.83-2.31-30.42-18.66-28.09-36.49 5.51-42.34 3.46-84.51-6.11-125.34-19.12-81.83-63.88-139.2-98.03-172.93-12.81-12.64-12.93-33.24-0.3-46.05 12.61-12.78 33.26-12.95 46.05-0.3 40.26 39.75 93.03 107.49 115.71 204.44 11.32 48.46 13.78 98.46 7.25 148.57-2.11 16.43-16.13 28.38-32.24 28.38zM586.94 393.59H304.47c-17.98 0-32.56-14.59-32.56-32.56 0-17.98 14.59-32.56 32.56-32.56h282.48c17.98 0 32.56 14.59 32.56 32.56 0 17.98-14.59 32.56-32.57 32.56zM285.47 233.27c-13.27 0-25.74-8.16-30.57-21.35-6.19-16.88 2.48-35.6 19.36-41.79l81.18-29.79c16.79-6.17 35.6 2.46 41.79 19.36 6.19 16.88-2.46 35.57-19.36 41.79l-81.18 29.79a32.483 32.483 0 0 1-11.22 1.99z"
        fill="#050500"
        p-id="1510"></path>
    <path
        d="M525.52 496.25c-4.71 0-9.33-1.8-14.84-3.94a32.981 32.981 0 0 1-8.42-4.83c-0.19-0.15-0.4-0.32-0.59-0.47l-0.13-0.13c-0.28-0.23-0.55-0.47-0.83-0.72l-2.42-2.16c-10.26-9.18-14.27-24.38-9.07-37.12 0.32-0.81 17.38-41.93 34.45-83.06 16.83-40.58 33.69-81.18 34.32-82.75 1.36-3.22 67.48-162.67 68.75-165.77a32.622 32.622 0 0 1 12.21-14.84c25.65-16.9 58.3-13.44 79.37 8.33 21.92 22.58 20.16 53.6 19.59 59.57-0.47 4.85-2.04 9.58-4.56 13.74l-44.97 74.75c-22.37 37.19-44.73 74.35-45.09 74.94-79.6 137.57-99.49 164.46-117.77 164.46z m-6.12-37.1l-0.02 0.02 0.02-0.02z"
        fill="#050500"
        p-id="1511"></path>
</svg>