<?xml version="1.0" standalone="no"?><!DOCTYPE svg PUBLIC "-//W3C//DTD SVG 1.1//EN" "http://www.w3.org/Graphics/SVG/1.1/DTD/svg11.dtd">
<svg t="1713684347646"
     class="icon"
     viewBox="0 0 1024 1024"
     version="1.1"
     xmlns="http://www.w3.org/2000/svg"
     p-id="1030"
     xmlns:xlink="http://www.w3.org/1999/xlink"
     width="200"
     height="200">
    <path
        d="M317.81 279.66a30.14 30.14 0 0 0 23.63 1.29c82-29.73 141.83-31.92 173.19-6.28 12.64 10.33 17.39 22.5 24.02 39.36 5.82 14.83 12.4 31.65 25.36 49.34 48.36 66 145.68 91.55 297.62 78.08 16.61-1.48 28.89-16.14 27.4-32.75-1.48-16.63-16.12-28.91-32.76-27.42-127.24 11.31-209.25-6.75-243.53-53.61-8.32-11.36-12.95-23.19-17.87-35.7-8.03-20.49-17.14-43.72-41.99-64.05-49.4-40.31-127.46-41.68-232.03-3.75-15.68 5.68-23.79 23.01-18.12 38.68a30.23 30.23 0 0 0 15.08 16.81z"
        fill="#050500"
        p-id="1031"></path>
    <path
        d="M671.03 202.44m-75.99 0a75.99 75.99 0 1 0 151.98 0 75.99 75.99 0 1 0-151.98 0Z"
        fill="#050500"
        p-id="1032"></path>
    <path
        d="M468.09 540.73l-69.56-82.27c-4.73-5.59-4.61-13.83 0.27-19.36l147.6-167.16c5.67-6.43 15.56-6.77 21.57-0.76l89.49 89.49c5.76 5.76 5.72 15.15-0.09 20.95l-160.6 160.2c-8.11 8.09-21.34 7.59-28.68-1.09zM368.15 421.58H170.82c-17.98 0-32.56-14.59-32.56-32.56 0-17.98 14.59-32.56 32.56-32.56h197.33c17.98 0 32.56 14.59 32.56 32.56 0 17.97-14.58 32.56-32.56 32.56zM303.02 498.01h-132.2c-17.98 0-32.56-14.59-32.56-32.56 0-17.98 14.59-32.56 32.56-32.56h132.21c17.98 0 32.56 14.59 32.56 32.56 0 17.97-14.59 32.56-32.57 32.56zM368.15 574.44H170.82c-17.98 0-32.56-14.59-32.56-32.56 0-17.98 14.59-32.56 32.56-32.56h197.33c17.98 0 32.56 14.59 32.56 32.56 0 17.97-14.58 32.56-32.56 32.56z"
        fill="#050500"
        p-id="1033"></path>
    <path
        d="M376.04 697.89c-14.63 0-27.92-9.92-31.59-24.76-4.32-17.45 6.34-35.11 23.81-39.41l145.67-35.96-107.78-121.9c-11.91-13.46-10.64-34.05 2.84-45.96s34.03-10.64 45.96 2.84l143.4 162.16a32.561 32.561 0 0 1 6.68 31.27 32.534 32.534 0 0 1-23.28 21.92l-197.89 48.85c-2.61 0.65-5.24 0.95-7.82 0.95z"
        fill="#050500"
        p-id="1034"></path>
    <path
        d="M470.97 897.79c-6.17 0-12.4-1.74-17.94-5.41-15.01-9.9-19.12-30.1-9.2-45.11L564.7 664.39c9.9-15.03 30.1-19.17 45.11-9.2 15.01 9.92 19.12 30.13 9.2 45.11L498.15 883.18c-6.25 9.48-16.62 14.61-27.18 14.61z"
        fill="#050500"
        p-id="1035"></path>
</svg>