<?xml version="1.0" standalone="no"?><!DOCTYPE svg PUBLIC "-//W3C//DTD SVG 1.1//EN" "http://www.w3.org/Graphics/SVG/1.1/DTD/svg11.dtd">
<svg t="1714120866005"
     class="icon"
     viewBox="0 0 1024 1024"
     version="1.1"
     xmlns="http://www.w3.org/2000/svg"
     p-id="7905"
     xmlns:xlink="http://www.w3.org/1999/xlink"
     width="128"
     height="128">
    <path
        d="M192 128v256h256V128H192z m0-64h256a64 64 0 0 1 64 64v256a64 64 0 0 1-64 64H192a64 64 0 0 1-64-64V128a64 64 0 0 1 64-64zM192 576v256h256V576H192z m0-64h256a64 64 0 0 1 64 64v256a64 64 0 0 1-64 64H192a64 64 0 0 1-64-64V576a64 64 0 0 1 64-64zM640 128v256h256V128h-256z m0-64h256a64 64 0 0 1 64 64v256a64 64 0 0 1-64 64h-256a64 64 0 0 1-64-64V128a64 64 0 0 1 64-64zM768 576a128 128 0 1 0 0 256 128 128 0 0 0 0-256z m0-64a192 192 0 1 1 0 384 192 192 0 0 1 0-384z"
        fill="#4A4A4A"
        p-id="7906"></path>
</svg>