<?xml version="1.0" standalone="no"?><!DOCTYPE svg PUBLIC "-//W3C//DTD SVG 1.1//EN" "http://www.w3.org/Graphics/SVG/1.1/DTD/svg11.dtd">
<svg t="1713684377879"
     class="icon"
     viewBox="0 0 1024 1024"
     version="1.1"
     xmlns="http://www.w3.org/2000/svg"
     p-id="1190"
     xmlns:xlink="http://www.w3.org/1999/xlink"
     width="200"
     height="200">
    <path
        d="M512.38 280.14m-75.51 0a75.51 75.51 0 1 0 151.02 0 75.51 75.51 0 1 0-151.02 0Z"
        fill="#050500"
        p-id="1191"></path>
    <path
        d="M474.12 686.87l76.48 0.01c15.93 0 28.85-12.91 28.85-28.84l0.04-244.35c0-15.93-12.91-28.85-28.84-28.85l-76.48-0.01c-15.93 0-28.85 12.91-28.85 28.84l-0.04 244.35c-0.01 15.93 12.91 28.85 28.84 28.85z"
        fill="#050500"
        p-id="1192"></path>
    <path
        d="M469.06 481.1c-1.78 0-3.57-0.15-5.38-0.45L312.91 455.6c-15.71-2.61-27.22-16.2-27.22-32.12v-183.7c0-17.98 14.58-32.56 32.56-32.56s32.56 14.59 32.56 32.56v156.1l123.55 20.54c17.73 2.95 29.73 19.72 26.78 37.46-2.64 15.93-16.44 27.22-32.08 27.22zM555.71 481.1c-15.64 0-29.44-11.3-32.08-27.22-2.96-17.74 9.04-34.51 26.78-37.46l123.55-20.54v-156.1c0-17.98 14.58-32.56 32.56-32.56s32.56 14.59 32.56 32.56v183.7c0 15.92-11.51 29.51-27.22 32.12l-150.77 25.06c-1.81 0.3-3.6 0.44-5.38 0.44zM477.27 948.11c-17.99 0-32.56-14.59-32.56-32.56V654.99c0-17.98 14.58-32.56 32.56-32.56s32.56 14.59 32.56 32.56v260.55c0 17.98-14.58 32.57-32.56 32.57zM547.5 948.11c-17.99 0-32.56-14.59-32.56-32.56V654.99c0-17.98 14.58-32.56 32.56-32.56 17.99 0 32.56 14.59 32.56 32.56v260.55c0.01 17.98-14.57 32.57-32.56 32.57z"
        fill="#050500"
        p-id="1193"></path>
    <path
        d="M900.65 289.26H124.12c-17.99 0-32.56-14.59-32.56-32.56 0-17.98 14.58-32.56 32.56-32.56h776.53c17.99 0 32.56 14.59 32.56 32.56 0.01 17.98-14.57 32.56-32.56 32.56z"
        fill="#050500"
        p-id="1194"></path>
</svg>