<?xml version="1.0" standalone="no"?><!DOCTYPE svg PUBLIC "-//W3C//DTD SVG 1.1//EN" "http://www.w3.org/Graphics/SVG/1.1/DTD/svg11.dtd">
<svg t="1714120883484"
     class="icon"
     viewBox="0 0 1024 1024"
     version="1.1"
     xmlns="http://www.w3.org/2000/svg"
     p-id="8905"
     xmlns:xlink="http://www.w3.org/1999/xlink"
     width="128"
     height="128">
    <path
        d="M512 938.666667a426.666667 426.666667 0 1 1 426.666667-426.666667 426.666667 426.666667 0 0 1-426.666667 426.666667z m0-789.333334a362.666667 362.666667 0 1 0 362.666667 362.666667A362.666667 362.666667 0 0 0 512 149.333333z"
        fill="#333333"
        p-id="8906"></path>
    <path
        d="M512 298.666667a42.666667 42.666667 0 1 1-42.666667 42.666666 42.666667 42.666667 0 0 1 42.666667-42.666666z m0 128a32 32 0 0 1 32 32v234.666666a32 32 0 0 1-64 0v-234.666666A32 32 0 0 1 512 426.666667z"
        fill="#FF9C00"
        p-id="8907"></path>
</svg>