<?xml version="1.0" standalone="no"?><!DOCTYPE svg PUBLIC "-//W3C//DTD SVG 1.1//EN" "http://www.w3.org/Graphics/SVG/1.1/DTD/svg11.dtd"><svg t="1712730468493" class="icon" viewBox="0 0 1024 1024" version="1.1" xmlns="http://www.w3.org/2000/svg" p-id="12987" xmlns:xlink="http://www.w3.org/1999/xlink" width="200" height="200"><path d="M899.579228 379.398136c-1.363515 12.271638-2.386152 24.543276-4.090546 36.474034-15.339547 101.241012-64.766977 181.688415-146.918775 242.364847-5.113182 3.749667-6.817577 7.158455-6.817577 13.294275 0.340879 30.338216 0.340879 60.335553 0 90.673768 0 19.770972-9.885486 33.747004-26.929427 38.178429-3.749667 1.022636-7.840213 1.363515-11.930759 1.363515h-332.356858c-23.520639 0-38.860186-15.339547-38.860186-38.519308v-93.400799c0-4.431425-1.022636-7.158455-4.772304-9.885486-80.106525-58.972037-130.556591-136.69241-147.259654-235.206391-2.045273-11.58988-3.067909-23.520639-4.772303-35.110519v-47.041279c0.340879-2.386152 1.022636-4.431425 1.363515-6.817576 2.386152-16.021305 3.749667-32.04261 7.158456-47.723036 50.109188-236.229028 318.721704-357.92277 528.703062-239.296938 100.559254 56.926764 161.576565 143.169108 181.688416 257.363516 2.727031 14.998668 3.749667 29.997337 5.454061 44.996005 0.340879 9.203728 0.340879 18.748336 0.340879 28.292943z m-231.115846 348.378162v-6.135819-71.243675c0-17.725699 6.476698-31.360852 22.498003-41.246338 44.996005-27.270306 78.743009-65.448735 102.945406-112.149134 30.679095-59.312916 38.519308-122.375499 25.906791-187.483356-29.997337-156.122503-183.733688-259.067909-338.492677-227.707057-166.007989 33.747004-267.58988 199.414115-221.912117 362.354194 19.770972 70.561917 61.699068 125.784288 123.398136 164.985353 16.703063 10.567244 23.520639 23.17976 23.17976 41.928096-0.681758 22.838881 0 45.677763 0 68.516644v7.840213c87.605859 0.340879 174.52996 0.340879 262.476698 0.340879z" p-id="12988"></path><path d="M899.579228 350.764314c-1.704394-14.998668-2.727031-30.338216-5.454062-44.996005-20.45273-114.194407-81.47004-200.436751-181.688415-257.363515-210.322237-118.966711-478.593875 3.067909-529.043941 239.296937-3.408788 15.680426-4.772304 31.701731-7.158456 47.723036-0.340879 2.386152-0.681758 4.431425-1.363515 6.817577V1.363515h724.36751c0.340879 116.580559 0.340879 233.161119 0.340879 349.400799z" fill="#FFFFFF" p-id="12989"></path><path d="M431.552597 1024c-1.704394-0.681758-3.408788-1.704394-5.113183-2.386152-15.339547-6.476698-23.520639-21.134487-20.793608-37.496671 2.386152-14.65779 15.680426-26.24767 31.701731-26.929427h4.431424c63.062583 0 126.466045-0.340879 189.528629 0.340878 7.158455 0 15.339547 2.045273 21.475366 5.794941 10.908123 6.135819 16.021305 16.703063 14.998669 29.315579-1.022636 13.294274-8.181092 22.838881-20.45273 28.633821-2.045273 1.022636-4.090546 2.045273-6.476698 2.727031h-209.2996zM537.225033 845.379494h156.122504c13.294274 0 23.17976 6.135819 29.656458 17.725699 6.135819 11.249001 5.79494 22.838881-1.022637 33.747004s-17.043941 15.680426-29.997337 15.680426h-310.540612c-16.021305 0-29.315579-9.544607-33.406125-23.861518-6.476698-21.134487 8.86285-42.950732 31.360852-43.291611 26.588549-0.340879 53.177097 0 79.765646 0h78.061251zM538.929427 449.619174c-62.039947-0.681758-113.51265-21.816245-156.463382-63.403462-14.998668-14.316911-15.339547-34.087883-1.704394-48.063914s34.087883-14.316911 48.404794 0.340878c57.949401 58.631158 156.463382 58.631158 216.117177 0 14.316911-14.316911 35.792277-13.976032 49.086551 0 12.953395 13.635153 12.271638 34.428762-2.386152 48.404794-43.63249 41.246338-95.446072 62.039947-153.054594 62.721704z" p-id="12990"></path></svg>