<?xml version="1.0" standalone="no"?><!DOCTYPE svg PUBLIC "-//W3C//DTD SVG 1.1//EN" "http://www.w3.org/Graphics/SVG/1.1/DTD/svg11.dtd">
<svg t="1713684443890"
     class="icon"
     viewBox="0 0 1024 1024"
     version="1.1"
     xmlns="http://www.w3.org/2000/svg"
     p-id="1505"
     xmlns:xlink="http://www.w3.org/1999/xlink"
     width="200"
     height="200">
    <path
        d="M389.408 161.376m-87.14666667 0a87.14666667 87.14666667 0 1 0 174.29333334 0 87.14666667 87.14666667 0 1 0-174.29333334 0Z"
        fill="#050500"
        p-id="1506"></path>
    <path
        d="M566.35733333 594.38933333l-84.94933333 23.95733334c-17.696 4.992-36.08533333-5.312-41.07733333-23.008l-76.544-271.424c-4.992-17.696 5.312-36.08533333 23.008-41.07733334l84.94933333-23.95733333c17.696-4.992 36.08533333 5.312 41.07733333 23.008l76.544 271.424c4.992 17.696-5.312 36.08533333-23.008 41.07733333z"
        fill="#050500"
        p-id="1507"></path>
    <path
        d="M249.32266667 659.44533333c-47.2 0-80.02133333-9.54666667-87.63733334-32.04266666-19.85066667-58.79466667 150.69866667-151.76533333 321.22666667-209.39733334 170.54933333-57.55733333 362.528-87.01866667 382.4-28.29866666 19.78666667 58.752-150.72 151.72266667-321.248 209.35466666-105.248 35.52-218.66666667 60.384-294.74133333 60.384z m529.376-282.06933333c-62.34666667 0-163.72266667 16.928-289.42933334 59.41333333-206.34666667 69.696-318.93333333 154.31466667-308.82133333 184.26666667 10.12266667 29.96266667 150.95466667 28.91733333 357.29066667-40.77866667 206.32533333-69.696 318.93333333-154.272 308.8-184.23466666-3.94666667-11.712-27.872-18.66666667-67.84-18.66666667z"
        fill="#050500"
        p-id="1508"></path>
    <path
        d="M779.25333333 480.30933333c-14.944 0-28.832-9.472-33.80266666-24.39466666-1.54666667-4.64-38.912-113.76-140.93866667-137.152-46.53866667-10.66666667-87.712 0.45866667-113.952 11.66933333-18.16533333 7.616-39.01866667-0.736-46.752-18.784-7.73333333-18.09066667 0.672-39.04 18.76266667-46.77333333 36.01066667-15.30666667 92.59733333-30.53866667 157.84533333-15.54133334 138.272 31.65866667 187.47733333 168.576 192.64 184.07466667 6.208 18.66666667-3.88266667 38.848-22.56 45.07733333a35.27893333 35.27893333 0 0 1-11.24266667 1.824zM235.54133333 592.87466667c-1.29066667 0-2.61333333-0.07466667-3.92533333-0.23466667-19.56266667-2.12266667-33.664-19.75466667-31.52-39.31733333 4.98133333-45.41866667 18.57066667-88.448 40.37333333-127.94666667 40.224-72.74666667 98.016-114.496 139.41333334-136.768 17.30133333-9.28 38.92266667-2.82666667 48.24533333 14.53866667 9.30133333 17.32266667 2.80533333 38.92266667-14.53866667 48.24533333-32.94933333 17.70666667-78.93333333 50.912-110.76266666 108.46933333-17.216 31.15733333-27.94666667 65.248-31.91466667 101.28-1.99466667 18.208-17.42933333 31.73333333-35.37066667 31.73333334zM337.44 926.51733333c-7.24266667 0-14.54933333-2.208-20.87466667-6.80533333-15.92533333-11.56266667-19.47733333-33.824-7.92533333-49.74933333a628.52906667 628.52906667 0 0 0 76.384-139.552c23.65866667-60.26666667 37.824-123.73333333 42.10133333-188.64 1.29066667-19.63733333 18.88-33.824 37.87733334-33.20533334 19.63733333 1.312 34.496 18.28266667 33.20533333 37.92-4.75733333 72.17066667-20.52266667 142.83733333-46.848 209.97333334a700.50133333 700.50133333 0 0 1-85.04533333 155.31733333c-6.976 9.632-17.83466667 14.74133333-28.87466667 14.74133333zM560.66133333 951.488c-0.85333333 0-1.696-0.04266667-2.57066666-0.11733333-19.616-1.38666667-34.4-18.44266667-33.01333334-38.03733334 4.576-64.43733333 5.408-129.888 2.432-194.47466666-3.09333333-67.02933333-10.32533333-134.56-21.49333333-200.704-3.28533333-19.40266667 9.78133333-37.80266667 29.184-41.088 19.328-2.976 37.78133333 9.81333333 41.056 29.184a1739.1168 1739.1168 0 0 1 22.42133333 209.35466666c3.11466667 67.33866667 2.26133333 135.56266667-2.51733333 202.752-1.33333333 18.784-16.992 33.13066667-35.49866667 33.13066667z"
        fill="#050500"
        p-id="1509"></path>
</svg>