<?xml version="1.0" standalone="no"?><!DOCTYPE svg PUBLIC "-//W3C//DTD SVG 1.1//EN" "http://www.w3.org/Graphics/SVG/1.1/DTD/svg11.dtd">
<svg t="1713611058073"
     class="icon"
     viewBox="0 0 1024 1024"
     version="1.1"
     xmlns="http://www.w3.org/2000/svg"
     p-id="14384"
     xmlns:xlink="http://www.w3.org/1999/xlink"
     width="200"
     height="200">
    <path
        d="M714.44979 0.295248a39.935301 39.935301 0 1 1 9.685164 79.294613c-86.419821 10.538482-141.90685 106.579468-157.074584 160.125197 50.559115-21.311627 117.032619-54.356382 149.672047-54.356382C890.574708 185.358676 1002.65808 341.771939 1002.65808 534.792561 1002.65808 827.651436 753.915766 1024 511.594674 1024 267.993603 1024 21.34192 830.979378 21.34192 534.920559c0-169.981025 68.798796-311.63188 216.956203-343.076663C189.808305 173.454885 157.787532 141.604775 157.787532 105.402742c0-56.959003 79.273279-103.144862 177.084901-103.144862S512 48.422406 512 105.402742c0 48.745814-58.025651 89.598432-136.040286 100.371577 37.396679 15.99972 77.11865 37.076684 107.752781 46.548519C491.45636 175.865509 569.748323 17.958939 714.44979 0.295248z m3.66927 264.93403c-15.573061 2.239961-59.476292 21.588956-85.865164 33.215419-54.48438 24.020913-86.803814 37.652674-117.565943 38.655324l-4.095928 0.063999c-40.57529 0-83.283876-19.882319-128.488418-40.959284-24.319574-11.306469-65.065528-30.292803-79.358612-30.99679-181.927483 0-201.596472 188.626032-201.596472 269.712613 0 252.774243 213.052272 409.208839 410.446151 409.208839 198.609858 0 411.23547-164.477122 411.23547-409.336837 0-129.405735-64.062879-268.667298-204.711084-269.563283z m-415.779391 88.638449a39.892635 39.892635 0 0 1 50.644447 24.938231 39.935301 39.935301 0 0 1-24.916897 50.66578c-58.87897 20.074315-91.006407 100.9689-91.006408 136.914937a39.935301 39.935301 0 1 1-79.827936 0c0-68.372137 50.431117-180.263512 145.128127-212.518948z m32.554097-271.78191c-46.996511 0-77.673307 13.589096-91.283736 23.316925 13.610428 9.706497 44.287225 23.274259 91.305069 23.274259 46.975178 0 77.651974-13.567763 91.262403-23.295592-13.610428-9.706497-44.287225-23.295592-91.283736-23.295592z"
        fill="#293233"
        p-id="14385"></path>
</svg>