<?xml version="1.0" standalone="no"?><!DOCTYPE svg PUBLIC "-//W3C//DTD SVG 1.1//EN" "http://www.w3.org/Graphics/SVG/1.1/DTD/svg11.dtd">
<svg t="1713684439553"
     class="icon"
     viewBox="0 0 1024 1024"
     version="1.1"
     xmlns="http://www.w3.org/2000/svg"
     p-id="1346"
     xmlns:xlink="http://www.w3.org/1999/xlink"
     width="200"
     height="200">
    <path
        d="M665.92995555 162.31537778m-85.9136 0a85.9136 85.9136 0 1 0 171.8272 0 85.9136 85.9136 0 1 0-171.8272 0Z"
        fill="#050500"
        p-id="1347"></path>
    <path
        d="M622.36444445 625.08373333l87.01724444 0.01137778c18.1248 0 32.82488889-14.68871111 32.82488889-32.81351111l0.05688889-278.016c0-18.1248-14.68871111-32.82488889-32.81351112-32.82488889l-87.01724444-0.01137778c-18.1248 0-32.82488889 14.68871111-32.82488889 32.81351112l-0.04551111 278.016c-0.02275555 18.1248 14.66595555 32.82488889 32.80213334 32.82488888z"
        fill="#050500"
        p-id="1348"></path>
    <path
        d="M714.83164445 946.16462222c-19.92248889 0-36.37475555-15.82648889-37.00053334-35.87413333l-10.05795556-317.46275556c-0.64853333-20.45724445 15.39413333-37.55804445 35.84-38.20657778 21.06026667-0.94435555 37.5808 15.39413333 38.20657778 35.84l10.05795556 317.46275556c0.64853333 20.45724445-15.39413333 37.55804445-35.84 38.20657778-0.4096 0.03413333-0.79644445 0.03413333-1.20604444 0.03413333zM616.94862222 946.16462222c-0.4096 0-0.79644445 0-1.20604444-0.02275555-20.45724445-0.64853333-36.49991111-17.74933333-35.84-38.20657778l10.05795555-317.46275556c0.62577778-20.04764445 17.07804445-35.87413333 37.00053334-35.87413333 0.4096 0 0.79644445 0 1.20604444 0.02275555 20.45724445 0.64853333 36.49991111 17.74933333 35.84 38.20657778l-10.05795556 317.46275556c-0.62577778 20.05902222-17.07804445 35.87413333-37.00053333 35.87413333zM527.7696 544.23324445a37.12568889 37.12568889 0 0 1-27.86417778-12.61795556l-95.01582222-108.30506667c-13.48266667-15.39413333-11.96942222-38.78684445 3.42471111-52.29226667 15.41688889-13.45991111 38.78684445-11.93528889 52.29226667 3.42471112l56.08106667 63.94311111L573.44 304.60586667c7.9872-18.8416 29.76426667-27.59111111 48.58311111-19.63804445 18.8416 7.9872 27.61386667 29.74151111 19.63804444 48.58311111l-79.79235555 188.09742222c-4.99484445 11.74186667-15.65582222 20.09315555-28.21688889 22.1184-1.96835555 0.31857778-3.92533333 0.46648889-5.88231111 0.4664889z"
        fill="#050500"
        p-id="1349"></path>
    <path
        d="M733.37742222 565.91928889c-18.69368889 0-34.75911111-14.10844445-36.78435555-33.12071111l-21.68604445-203.17297778c-2.17315555-20.33208889 12.53831111-38.59342222 32.90453333-40.76657778 19.968-2.24142222 38.59342222 12.53831111 40.76657778 32.90453333l21.68604445 203.17297778c2.17315555 20.33208889-12.53831111 38.59342222-32.90453333 40.76657778-1.31982222 0.13653333-2.65102222 0.21617778-3.98222223 0.21617778zM353.54168889 472.064c-10.25137778 0-20.43448889-4.22115555-27.76177778-12.47004445-13.55093333-15.31448889-12.16284445-38.74133333 3.16302222-52.31502222l123.35786667-109.31768888c15.36-13.58506667 38.74133333-12.12871111 52.31502222 3.16302222 13.55093333 15.31448889 12.16284445 38.74133333-3.16302222 52.31502222l-123.35786667 109.31768889a36.99598222 36.99598222 0 0 1-24.55324444 9.30702222z"
        fill="#050500"
        p-id="1350"></path>
    <path
        d="M447.56423111 226.36999111l110.67392 119.99573334-52.08064 48.03584-110.67505778-119.99573334z"
        fill="#050500"
        p-id="1351"></path>
    <path
        d="M304.50119111 346.07445333l110.67505778 119.99573334-52.08177778 48.03697778-110.67392-119.99573334z"
        fill="#050500"
        p-id="1352"></path>
</svg>