<?xml version="1.0" standalone="no"?><!DOCTYPE svg PUBLIC "-//W3C//DTD SVG 1.1//EN" "http://www.w3.org/Graphics/SVG/1.1/DTD/svg11.dtd">
<svg t="1713684427993"
     class="icon"
     viewBox="0 0 1024 1024"
     version="1.1"
     xmlns="http://www.w3.org/2000/svg"
     p-id="1030"
     xmlns:xlink="http://www.w3.org/1999/xlink"
     width="200"
     height="200">
    <path
        d="M554.64533333 140.07466667m-80.544 0a80.544 80.544 0 1 0 161.088 0 80.544 80.544 0 1 0-161.088 0Z"
        fill="#050500"
        p-id="1031"></path>
    <path
        d="M498.05866667 572.14933333l81.52533333 2.98666667c16.98133333 0.61866667 31.25333333-12.64 31.872-29.62133333l9.536-260.45866667c0.61866667-16.98133333-12.64-31.25333333-29.62133333-31.872l-81.52533334-2.98666667c-16.98133333-0.61866667-31.25333333 12.64-31.872 29.62133334l-9.536 260.45866666c-0.61866667 16.97066667 12.64 31.24266667 29.62133334 31.872z"
        fill="#050500"
        p-id="1032"></path>
    <path
        d="M336.77866667 496.87466667c-0.65066667 0-1.312-0.02133333-1.96266667-0.04266667-19.15733333-1.088-33.80266667-17.48266667-32.74666667-36.62933333 1.45066667-25.664 10.72-91.09333333 65.80266667-144.18133334 46.944-45.26933333 101.216-56.672 129.376-59.43466666 19.17866667-2.05866667 36.096 12.096 37.97333333 31.18933333 1.856 19.104-12.096 36.096-31.18933333 37.97333333-19.17866667 1.87733333-56.128 9.61066667-87.94666667 40.29866667-37.35466667 36-43.66933333 80.576-44.64 98.05866667-1.03466667 18.47466667-16.36266667 32.768-34.66666666 32.768zM684.46933333 448.16c-74.24 0-125.64266667-38.60266667-144.52266666-55.44533333-14.31466667-12.77866667-15.56266667-34.73066667-2.784-49.04533334 12.736-14.29333333 34.70933333-15.56266667 49.04533333-2.784 12.864 11.488 47.89333333 37.81333333 98.26133333 37.81333334 0.88533333 0 1.76 0 2.66666667-0.02133334 44.13866667-0.81066667 75.79733333-21.46133333 90.752-33.696 14.816-12.192 36.74666667-9.97333333 48.864 4.864 12.17066667 14.83733333 9.99466667 36.72533333-4.864 48.864-21.888 17.952-68.36266667 48.21333333-133.49333333 49.42933334-1.30133333 0.02133333-2.61333333 0.02133333-3.92533334 0.02133333zM546.54933333 882.98666667c-1.04533333 0-2.10133333-0.04266667-3.168-0.13866667-19.104-1.71733333-33.19466667-18.61333333-31.47733333-37.71733333l26.70933333-296.58666667c1.71733333-19.104 18.38933333-33.23733333 37.71733334-31.47733333 19.08266667 1.71733333 33.19466667 18.61333333 31.47733333 37.71733333l-26.70933333 296.58666667c-1.62133333 18.048-16.77866667 31.616-34.54933334 31.616z"
        fill="#050500"
        p-id="1033"></path>
    <path
        d="M610.85866667 967.584H469.00266667c-19.17866667 0-34.73066667-15.56266667-34.73066667-34.73066667s15.56266667-34.73066667 34.73066667-34.73066666h121.6l11.168-19.78666667c9.49333333-16.69333333 30.70933333-22.496 47.34933333-13.12 16.69333333 9.45066667 22.57066667 30.66666667 13.12 47.34933333l-21.12 37.35466667a34.752 34.752 0 0 1-30.26133333 17.664zM260.14933333 797.23733333c-5.792 0-11.648-1.42933333-17.024-4.48l-37.472-21.16266666a34.79146667 34.79146667 0 0 1-17.62133333-30.24V599.52c0-19.17866667 15.56266667-34.73066667 34.73066667-34.73066667s34.73066667 15.56266667 34.73066666 34.73066667v121.568l19.72266667 11.14666667c16.71466667 9.408 22.63466667 30.592 13.20533333 47.30666666-6.37866667 11.33866667-18.15466667 17.696-30.272 17.696z"
        fill="#050500"
        p-id="1034"></path>
    <path
        d="M350.21866667 721.52533333c-19.46666667 0-39.43466667-3.34933333-59.27466667-10.016-18.18666667-6.10133333-27.94666667-25.80266667-21.84533333-44.01066666 6.13333333-18.13333333 25.76-27.88266667 44.01066666-21.84533334 15.712 5.312 39.66933333 10.016 64.128 2.42133334 46.03733333-14.272 79.168-66.10133333 82.47466667-128.94933334 0.992-19.15733333 17.30133333-33.80266667 36.50133333-32.88533333 19.17866667 1.01333333 33.87733333 17.344 32.88533334 36.50133333-4.82133333 91.78666667-57.57866667 168.81066667-131.27466667 191.68-15.27466667 4.72533333-31.25333333 7.104-47.60533333 7.104z"
        fill="#050500"
        p-id="1035"></path>
</svg>