<?xml version="1.0" standalone="no"?><!DOCTYPE svg PUBLIC "-//W3C//DTD SVG 1.1//EN" "http://www.w3.org/Graphics/SVG/1.1/DTD/svg11.dtd"><svg t="1712729973103" class="icon" viewBox="0 0 1024 1024" version="1.1" xmlns="http://www.w3.org/2000/svg" p-id="11024" xmlns:xlink="http://www.w3.org/1999/xlink" width="200" height="200"><path d="M511.790222 61.691037c-246.920716 0-447.803909 200.883193-447.803909 447.803909 0 125.418454 53.093219 245.896386 145.623635 330.515622 82.512249 75.634608 189.831486 117.29852 302.180274 117.29852 111.692848 0 218.693838-41.345664 301.305347-116.443036 93.106538-84.718497 146.498562-205.495234 146.498562-331.370083C959.594131 262.574231 758.710938 61.691037 511.790222 61.691037zM511.790222 916.598898c-96.721879 0-189.330066-33.980929-262.572184-95.978958 55.116295-91.861174 154.071028-148.277068 261.975597-148.277068 108.276029 0 207.383234 56.698327 262.35422 148.997476C700.254571 882.875842 607.935979 916.598898 511.790222 916.598898zM348.355943 468.785779c0-89.786932 73.05076-162.837692 162.837692-162.837692 89.786932 0 162.837692 73.05076 162.837692 162.837692 0 89.797166-73.05076 162.847925-162.837692 162.847925C421.406702 631.632681 348.355943 558.582945 348.355943 468.785779zM803.959491 793.053094c-45.032636-71.482031-113.843838-123.124202-193.077414-146.853649 61.936631-34.94386 103.859439-101.371782 103.859439-177.413666 0-112.239294-91.317799-203.546859-203.546859-203.546859s-203.546859 91.307565-203.546859 203.546859c0 76.051093 41.933041 142.486178 103.881952 177.426969-78.916351 23.647583-147.553591 74.991971-192.623066 146.033981-72.863495-75.56093-114.209158-177.226401-114.209158-282.750759 0-224.468354 182.616154-407.094742 407.094742-407.094742s407.094742 182.626387 407.094742 407.094742C918.884964 615.429651 877.28245 717.399043 803.959491 793.053094z" fill="#666666" p-id="11025"></path></svg>