<?xml version="1.0" standalone="no"?><!DOCTYPE svg PUBLIC "-//W3C//DTD SVG 1.1//EN" "http://www.w3.org/Graphics/SVG/1.1/DTD/svg11.dtd">
<svg t="1713684410985"
     class="icon"
     viewBox="0 0 1024 1024"
     version="1.1"
     xmlns="http://www.w3.org/2000/svg"
     p-id="1820"
     xmlns:xlink="http://www.w3.org/1999/xlink"
     width="200"
     height="200">
    <path
        d="M658.43655111 184.22290963m-91.64117333 0a91.64117333 91.64117333 0 1 0 183.28234667 0 91.64117333 91.64117333 0 1 0-183.28234667 0Z"
        fill="#050500"
        p-id="1821"></path>
    <path
        d="M236.88229925 385.8432a36.53025185 36.53025185 0 0 0 26.42071705-11.26248297c73.35177482-76.32516741 137.32219259-110.78011259 185.21201778-99.66326518 19.29671111 4.47829333 30.99610075 15.18250667 47.25873777 29.97665185 14.28442075 13.03438222 30.4621037 27.81639111 54.0550637 40.13473185 88.02455703 45.94801778 207.70057482 21.60260741 365.92146963-74.49258666 17.29422222-10.51003259 22.80410075-33.05927111 12.28193185-50.35349334-10.52216889-17.30635852-33.04713482-22.84050963-50.36562962-12.29406814-132.49194667 80.51218963-231.46344297 104.79691852-293.90468741 72.15028148-15.14609778-7.91286518-26.5299437-18.31367111-38.59342222-29.29701926-19.72148148-18.0102637-42.10081185-38.41137778-80.03887408-47.23446518-75.39067259-17.41558518-161.12146963 22.9254637-254.66804148 120.28283258-14.02955852 14.58782815-13.56837925 37.80456297 1.0073126 51.83412149a36.71593718 36.71593718 0 0 0 25.41340443 10.21876148zM713.42610963 935.71451259c3.87147852 0 7.76722963-0.63108741 11.63870815-1.91753481 19.18748445-6.40796445 29.52760889-27.17316741 23.11964444-46.37278815-18.54426075-55.52355555-44.78293333-107.96449185-77.92715852-155.87858963-42.21003852-60.94848-94.65097482-113.3894163-155.86645333-155.86645333-16.65099852-11.61443555-39.47937185-7.45168592-51.00885334 9.19931258-11.56589037 16.62672592-7.41527703 39.47937185 9.1993126 51.00885334 53.98224592 37.47688297 100.19726222 83.69189925 137.39501037 137.39501038 29.21206518 42.21003852 52.33170963 88.42505482 68.69143703 137.37073778 5.10938075 15.35241482 19.39380148 25.06145185 34.7583526 25.06145184z"
        fill="#050500"
        p-id="1822"></path>
    <path
        d="M359.79870815 578.72535703l77.6722963 50.8146726c16.17768297 10.58285037 37.87738075 6.04387555 48.4602311-10.13380741l162.34723556-248.16298667c10.58285037-16.17768297 6.04387555-37.87738075-10.13380741-48.4602311l-77.67229629-50.8146726c-16.17768297-10.58285037-37.87738075-6.04387555-48.46023111 10.1338074L349.66490075 530.26512592c-10.58285037 16.17768297-6.04387555 37.87738075 10.1338074 48.46023111z"
        fill="#050500"
        p-id="1823"></path>
    <path
        d="M201.48072297 727.44353185c25.48622222 0 53.98224592-3.55593482 83.76471703-13.60478815 116.94535111-39.43082667 161.59478518-147.51668148 169.36201482-168.80374518 6.94196148-19.00544-2.86416592-40.06191408-21.86960593-47.00387555-19.00544-6.85700741-40.06191408 2.82775703-47.00387556 21.86960592-5.72833185 15.72864-38.73905778 95.74324148-123.89944888 124.44558222-52.58657185 17.75540148-100.05162667 7.51236741-123.64458667-0.14563556-19.36952889-6.17737482-39.95268741 4.34479408-46.14219853 23.6050963-6.22592 19.26030222 4.33265778 39.92841482 23.59296 46.16647112 18.96903111 6.14096592 49.32190815 13.47128889 85.84002372 13.47128888z"
        fill="#050500"
        p-id="1824"></path>
</svg>