<?xml version="1.0" standalone="no"?><!DOCTYPE svg PUBLIC "-//W3C//DTD SVG 1.1//EN" "http://www.w3.org/Graphics/SVG/1.1/DTD/svg11.dtd">
<svg t="1713884198796"
     class="icon"
     viewBox="0 0 1024 1024"
     version="1.1"
     xmlns="http://www.w3.org/2000/svg"
     p-id="4288"
     xmlns:xlink="http://www.w3.org/1999/xlink"
     width="200"
     height="200">
    <path
        d="M986.2 893.3L822.8 727c54.8-75.1 87.3-167.7 87.3-268 0-250.8-202.6-454-452.5-454S5 208.3 5 459c0 250.8 202.6 454 452.5 454 101.8 0 195.7-33.7 271.3-90.6l159.3 162.2c13.3 13.6 31.2 20.4 49 20.4 16.8 0 33.7-6.1 46.9-18.3 27.1-25.2 28.1-67 2.2-93.4z"
        fill="#707070"
        p-id="4289"></path>
    <path
        d="M140.7 459a316.8 317.8 0 1 0 633.6 0 316.8 317.8 0 1 0-633.6 0Z"
        fill="#FFFFFF"
        p-id="4290"></path>
</svg>