<?xml version="1.0" standalone="no"?><!DOCTYPE svg PUBLIC "-//W3C//DTD SVG 1.1//EN" "http://www.w3.org/Graphics/SVG/1.1/DTD/svg11.dtd">
<svg t="1713684447282"
     class="icon"
     viewBox="0 0 1024 1024"
     version="1.1"
     xmlns="http://www.w3.org/2000/svg"
     p-id="1662"
     xmlns:xlink="http://www.w3.org/1999/xlink"
     width="200"
     height="200">
    <path
        d="M298.24 232.59m-75.51 0a75.51 75.51 0 1 0 151.02 0 75.51 75.51 0 1 0-151.02 0Z"
        fill="#050500"
        p-id="1663"></path>
    <path
        d="M245.19 637.66l76.43 2.8c15.92 0.58 29.3-11.85 29.88-27.77l8.94-244.18c0.58-15.92-11.85-29.3-27.77-29.88l-76.43-2.8c-15.92-0.58-29.3 11.85-29.88 27.77l-8.94 244.18c-0.58 15.92 11.85 29.29 27.77 29.88z"
        fill="#050500"
        p-id="1664"></path>
    <path
        d="M492.07 512.22c-24.49 0-53.76-4.3-84.23-18.3-65.13-29.94-93.6-84.97-102.82-107.25-6.89-16.6 1.02-35.66 17.64-42.53 16.66-6.89 35.66 1.04 42.53 17.64 6.3 15.16 25.67 52.66 69.83 72.95 37.65 17.3 72.74 12.72 90.31 8.46 17.55-4.18 35.09 6.49 39.35 23.96 4.24 17.49-6.49 35.09-23.96 39.35-11.64 2.82-28.53 5.72-48.65 5.72zM329.25 929.56c-17.51 0-31.97-13.91-32.52-31.53l-8.84-279.04c-0.57-17.98 13.53-33.01 31.5-33.58 18.59-0.89 33.03 13.53 33.58 31.5l8.84 279.04c0.57 17.98-13.53 33.01-31.5 33.58-0.36 0.03-0.7 0.03-1.06 0.03zM243.22 929.56c-0.36 0-0.7 0-1.06-0.02-17.98-0.57-32.08-15.6-31.5-33.58l8.84-279.04c0.57-18 15.56-32.31 33.58-31.5 17.98 0.57 32.08 15.6 31.5 33.58l-8.84 279.04c-0.55 17.61-15.01 31.52-32.52 31.52z"
        fill="#050500"
        p-id="1665"></path>
    <path
        d="M258.48 419.49c-9.2 0-18.34-3.88-24.78-11.41-11.68-13.67-10.07-34.24 3.6-45.92 5.45-4.64 10.22-9.63 15.14-14.69 9.65-9.94 20.56-21.22 36.34-32.03 1.53-1.02 19.67-12.66 41.55-21.39 44.46-17.72 177.28-26.06 338.49-21.07l79.4-0.02c17.98 0 32.56 14.59 32.56 32.56 0 17.98-14.59 32.56-32.56 32.56h-80.39c-164.52-4.96-284 4.77-313.37 16.47-15.82 6.3-29.51 15.03-29.64 15.12-9.58 6.59-17.38 14.63-25.63 23.15-6.34 6.53-12.57 12.87-19.57 18.87a32.477 32.477 0 0 1-21.14 7.8z"
        fill="#050500"
        p-id="1666"></path>
    <path
        d="M399.99 579.39c-17.98 0-32.56-14.59-32.56-32.56s14.59-32.56 32.56-32.56c97.16 0 176.22-79.06 176.22-176.22 0-97.18-79.06-176.24-176.22-176.24-17.98 0-32.56-14.59-32.56-32.56s14.59-32.56 32.56-32.56c133.08 0 241.35 108.27 241.35 241.37 0 133.06-108.27 241.33-241.35 241.33zM815.05 305.98l-73.57-42.47c-1.64-0.95-3.69 0.24-3.69 2.13v84.95c0 1.89 2.05 3.08 3.69 2.13l73.57-42.47c1.64-0.95 1.64-3.32 0-4.27z"
        fill="#050500"
        p-id="1667"></path>
</svg>