<?xml version="1.0" standalone="no"?><!DOCTYPE svg PUBLIC "-//W3C//DTD SVG 1.1//EN" "http://www.w3.org/Graphics/SVG/1.1/DTD/svg11.dtd">
<svg t="1713684477836"
     class="icon"
     viewBox="0 0 1024 1024"
     version="1.1"
     xmlns="http://www.w3.org/2000/svg"
     p-id="2607"
     xmlns:xlink="http://www.w3.org/1999/xlink"
     width="200"
     height="200">
    <path
        d="M512.27733333 280.448m-80.544 0a80.544 80.544 0 1 0 161.088 0 80.544 80.544 0 1 0-161.088 0Z"
        fill="#050500"
        p-id="2608"></path>
    <path
        d="M471.46666667 714.29333333l81.57866666 0.01066667c16.992 0 30.77333333-13.77066667 30.77333334-30.76266667l0.04266666-260.64c0-16.992-13.77066667-30.77333333-30.76266666-30.77333333l-81.57866667-0.01066667c-16.992 0-30.77333333 13.77066667-30.77333333 30.76266667l-0.04266667 260.64c-0.01066667 16.992 13.77066667 30.76266667 30.76266667 30.77333333z"
        fill="#050500"
        p-id="2609"></path>
    <path
        d="M238.08 647.34933333c-14.79466667 0-28.49066667-9.49333333-33.152-24.352-5.71733333-18.31466667 4.48-37.792 22.77333333-43.53066666 63.70133333-19.94666667 120.10666667-54.83733333 163.11466667-100.97066667 17.84533333-19.136 33.696-40.43733333 47.08266667-63.31733333 9.728-16.55466667 31.008-22.09066667 47.53066666-12.416 16.55466667 9.67466667 22.112 30.95466667 12.43733334 47.50933333-15.98933333 27.296-34.912 52.736-56.26666667 75.616-51.2 54.88-117.99466667 96.36266667-193.14133333 119.872a34.4672 34.4672 0 0 1-10.37866667 1.58933333zM789.26933333 647.34933333c-3.43466667 0-6.92266667-0.50133333-10.37866666-1.57866666-75.12533333-23.52-141.92-64.97066667-193.14133334-119.872-21.344-22.912-40.256-48.352-56.24533333-75.616-9.67466667-16.55466667-4.11733333-37.83466667 12.43733333-47.50933334 16.512-9.70666667 37.81333333-4.16 47.53066667 12.416 13.38666667 22.85866667 29.216 44.192 47.08266667 63.33866667 43.008 46.112 99.41333333 81.024 163.09333333 100.94933333 18.29333333 5.73866667 28.49066667 25.216 22.77333333 43.53066667-4.65066667 14.83733333-18.35733333 24.34133333-33.152 24.34133333z"
        fill="#050500"
        p-id="2610"></path>
    <path
        d="M797.41866667 506.42133333c-19.17866667 0-34.73066667-15.56266667-34.73066667-34.73066666V356.10666667c0-137.99466667-112.27733333-250.272-250.272-250.272S262.144 218.112 262.144 356.10666667V471.68c0 19.17866667-15.56266667 34.73066667-34.73066667 34.73066667s-34.73066667-15.56266667-34.73066666-34.73066667V356.10666667c0-176.29866667 143.44533333-319.73333333 319.73333333-319.73333334s319.73333333 143.44533333 319.73333333 319.73333334V471.68c0 19.17866667-15.56266667 34.74133333-34.73066666 34.74133333zM474.32533333 851.75466667c-19.17866667 0-34.73066667-15.56266667-34.73066666-34.73066667V674.08c0-19.17866667 15.56266667-34.73066667 34.73066666-34.73066667 19.17866667 0 34.73066667 15.56266667 34.73066667 34.73066667v142.944c0.01066667 19.168-15.552 34.73066667-34.73066667 34.73066667zM549.58933333 990.016c-19.17866667 0-34.73066667-15.56266667-34.73066666-34.73066667V673.39733333c0-19.17866667 15.56266667-34.73066667 34.73066666-34.73066666s34.73066667 15.56266667 34.73066667 34.73066666v281.87733334c0 19.17866667-15.552 34.74133333-34.73066667 34.74133333z"
        fill="#050500"
        p-id="2611"></path>
</svg>