<?xml version="1.0" standalone="no"?><!DOCTYPE svg PUBLIC "-//W3C//DTD SVG 1.1//EN" "http://www.w3.org/Graphics/SVG/1.1/DTD/svg11.dtd">
<svg t="1713684457489"
     class="icon"
     viewBox="0 0 1024 1024"
     version="1.1"
     xmlns="http://www.w3.org/2000/svg"
     p-id="1977"
     xmlns:xlink="http://www.w3.org/1999/xlink"
     width="200"
     height="200">
    <path
        d="M823.57333333 352.98133333c-14.176 0-17.71733333 8.864-17.71733333 17.71733334v124.04266666c0 19.488 0 35.44533333-35.44533333 35.44533334-51.392 0-70.88 21.26933333-70.88 53.16266666 0 14.176 10.63466667 53.16266667 70.88 53.16266667 67.33866667 0 70.88-46.06933333 70.88-70.88v-124.05333333c0-12.40533333 1.77066667-17.71733333 8.864-17.71733334 33.664 0 45.96266667 17.71733333 81.408 17.71733334 0 0 17.824-0.10666667 16.05333333-16.05333334v-37.10933333c0-14.176-7.09333333-17.71733333-17.71733333-17.71733333-63.79733333 0-46.08-17.71733333-106.32533334-17.71733334z"
        fill="#050500"
        p-id="1978"></path>
    <path
        d="M376.61866667 148.20266667m-80.544 0a80.544 80.544 0 1 0 161.088 0 80.544 80.544 0 1 0-161.088 0Z"
        fill="#050500"
        p-id="1979"></path>
    <path
        d="M372.02133333 583.06133333l81.44-4.736c16.97066667-0.98133333 29.92-15.54133333 28.928-32.50133333l-15.12533333-260.20266667c-0.98133333-16.96-15.54133333-29.92-32.50133333-28.928l-81.44 4.736c-16.97066667 0.98133333-29.92 15.54133333-28.928 32.50133334L339.52 554.13333333c0.98133333 16.96 15.53066667 29.90933333 32.50133333 28.928z"
        fill="#050500"
        p-id="1980"></path>
    <path
        d="M272.608 497.76c-2.624 0-5.29066667-0.29866667-7.95733333-0.928l-158.95466667-37.408c-18.67733333-4.384-30.26133333-23.09333333-25.86666667-41.74933333 4.36266667-18.67733333 22.99733333-30.304 41.74933334-25.86666667l132.69333333 31.21066667 73.024-140.34133334c8.88533333-17.024 29.824-23.56266667 46.85866667-14.79466666 17.00266667 8.864 23.62666667 29.824 14.79466666 46.85866666l-85.52533333 164.30933334c-6.08 11.68-18.09066667 18.70933333-30.816 18.70933333zM589.92 418.18666667c-5.92 0-11.85066667-1.51466667-17.184-4.544l-148.98133333-84.87466667c-16.66133333-9.49333333-22.47466667-30.70933333-12.96-47.38133333 9.49333333-16.69333333 30.73066667-22.47466667 47.38133333-12.96L587.73333333 342.21866667 698.56 262.4c15.56266667-11.14666667 37.26933333-7.66933333 48.48 7.91466667 11.18933333 15.56266667 7.66933333 37.26933333-7.91466667 48.48L610.22933333 411.62666667a34.6368 34.6368 0 0 1-20.30933333 6.56zM367.264 956.576c-14.112 0-27.38133333-8.66133333-32.58666667-22.67733333l-72.13866666-195.072c-2.912-7.936-2.86933333-16.66133333 0.18133333-24.55466667l65.01333333-168.34133333c6.944-17.888 27.136-26.688 44.93866667-19.88266667 17.888 6.92266667 26.79466667 27.05066667 19.88266667 44.93866667l-60.29866667 156.05333333 67.59466667 182.74133333c6.64533333 17.97333333-2.528 37.97333333-20.53333334 44.64a34.62186667 34.62186667 0 0 1-12.05333333 2.15466667zM573.03466667 902.22933333c-10.76266667 0-21.39733333-5.00266667-28.18133334-14.4L429.06666667 727.52a34.6752 34.6752 0 0 1-6.48533334-17.90933333L411.008 543.04c-1.33333333-19.136 13.12-35.73333333 32.24533333-37.04533333 18.99733333-1.51466667 35.712 13.09866667 37.04533334 32.24533333l10.90133333 156.65066667 109.97333333 152.27733333c11.24266667 15.53066667 7.73333333 37.248-7.82933333 48.48-6.13333333 4.45866667-13.25866667 6.58133333-20.30933333 6.58133333z"
        fill="#050500"
        p-id="1981"></path>
</svg>