<?xml version="1.0" standalone="no"?><!DOCTYPE svg PUBLIC "-//W3C//DTD SVG 1.1//EN" "http://www.w3.org/Graphics/SVG/1.1/DTD/svg11.dtd">
<svg t="1713684460623"
     class="icon"
     viewBox="0 0 1024 1024"
     version="1.1"
     xmlns="http://www.w3.org/2000/svg"
     p-id="2134"
     xmlns:xlink="http://www.w3.org/1999/xlink"
     width="200"
     height="200">
    <path
        d="M677.67466667 291.52m-74.688 0a74.688 74.688 0 1 0 149.376 0 74.688 74.688 0 1 0-149.376 0Z"
        fill="#050500"
        p-id="2135"></path>
    <path
        d="M229.29066667 920.59733333c-3.27466667 0-6.61333333-0.55466667-9.86666667-1.67466666-15.43466667-5.472-23.52-22.4-18.06933333-37.81333334 41.94133333-118.72 87.75466667-236.8 136.14933333-351.008 88.91733333-209.78133333 126.93333333-266.69866667 178.51733333-314.93333333 72.90666667-68.13866667 165.376-113.73866667 274.86933334-135.49866667 16.01066667-3.27466667 31.63733333 7.232 34.83733333 23.264 3.17866667 16.064-7.232 31.65866667-23.296 34.83733334-98.48533333 19.584-181.23733333 60.18133333-245.93066667 120.68266666-45.23733333 42.304-79.712 94.912-164.42666666 294.79466667-47.936 113.04533333-93.30133333 230.00533333-134.83733334 347.59466667-4.29866667 12.18133333-15.73333333 19.75466667-27.94666666 19.75466666z"
        fill="#050500"
        p-id="2136"></path>
    <path
        d="M424.23466667 587.904c-14.41066667 0-27.04-10.528-29.248-25.20533333-2.44266667-16.17066667 8.69333333-31.27466667 24.87466666-33.73866667l194.67733334-29.312c-17.99466667-38.60266667-43.12533333-74.50666667-74.88-106.976-11.44533333-11.69066667-11.24266667-30.464 0.45866666-41.89866667 11.68-11.456 30.45333333-11.25333333 41.89866667 0.45866667 42.03733333 42.99733333 74.09066667 91.46666667 95.22133333 144.096 2.47466667 6.16533333 4.74666667 12.23466667 6.848 18.28266667 2.89066667 8.30933333 1.94133333 17.504-2.61333333 25.024a29.69493333 29.69493333 0 0 1-20.94933333 14.00533333l-231.79733334 34.92266667a29.44 29.44 0 0 1-4.49066666 0.34133333zM524.77866667 945.71733333c-11.17866667 0-21.888-6.368-26.912-17.184L352.864 615.18933333c-6.86933333-14.848-0.40533333-32.46933333 14.45333333-39.31733333 14.848-6.89066667 32.448-0.40533333 39.33866667 14.44266667l145.00266667 313.33333333c6.86933333 14.848 0.40533333 32.46933333-14.45333334 39.31733333a29.13493333 29.13493333 0 0 1-12.42666666 2.752z"
        fill="#050500"
        p-id="2137"></path>
    <path
        d="M327.59466667 618.13333333l47.59466666 37.61066667c10.22933333 8.08533333 25.152 5.792 32.49066667-4.98133333l183.49866667-269.55733334c5.57866667-8.192 5.12-19.08266667-1.12-26.784l-49.38666667-60.93866666c-9.728-12-28.384-10.82666667-36.53333333 2.304L322.432 588.672c-6.016 9.696-3.79733333 22.37866667 5.16266667 29.46133333z"
        fill="#050500"
        p-id="2138"></path>
</svg>