<?xml version="1.0" standalone="no"?><!DOCTYPE svg PUBLIC "-//W3C//DTD SVG 1.1//EN" "http://www.w3.org/Graphics/SVG/1.1/DTD/svg11.dtd">
<svg t="1713611035616"
     class="icon"
     viewBox="0 0 1024 1024"
     version="1.1"
     xmlns="http://www.w3.org/2000/svg"
     p-id="12436"
     xmlns:xlink="http://www.w3.org/1999/xlink"
     width="200"
     height="200">
    <path
        d="M911.865083 729.518059c1.344624-13.45136 2.018983-26.732851 2.018983-40.171931 0-196.99463-142.6847-361.2803-330.120626-394.926608 14.121626-16.413831 22.669302-37.753859 22.669302-61.054541 0-51.687196-42.049698-93.737918-93.736894-93.737918s-93.738941 42.050722-93.738941 93.737918c0 23.301705 8.5487 44.641733 22.670326 61.056588-187.437973 33.651424-330.12165 197.965747-330.12165 394.972657 0 13.693884 0.697895 27.215852 2.096754 40.932248-28.26781 12.361539-48.079018 40.582277-48.079018 73.355705 0 44.128033 35.901675 80.030731 80.030731 80.030731l736.282113 0c44.128033 0 80.030731-35.902698 80.030731-80.030731C961.866894 770.169921 941.154153 741.421156 911.865083 729.518059zM512.695848 179.642426c29.622668 0 53.721529 24.099884 53.721529 53.722552 0 29.622668-24.098861 53.722552-53.721529 53.722552s-53.723575-24.099884-53.723575-53.722552C458.972273 203.742311 483.07318 179.642426 512.695848 179.642426zM512.695848 328.172251c199.151759 0 361.172853 162.099888 361.172853 361.279277 0 11.414981-0.532119 22.1116-1.609661 34.199916l-719.128431 0c-1.078565-12.087293-1.609661-22.745027-1.609661-34.146705C151.520949 490.311025 313.543066 328.172251 512.695848 328.172251zM881.836163 843.696518 145.55405 843.696518c-22.064528 0-40.015366-17.949814-40.015366-40.015366 0-20.293185 15.186887-37.093826 34.789341-39.663348l746.733139 0c19.603477 2.569522 34.789341 19.370163 34.789341 39.663348C921.851529 825.746704 903.901715 843.696518 881.836163 843.696518z"
        fill="#272636"
        p-id="12437"></path>
    <path
        d="M276.604782 532.577664c11.04966 0 20.007683-8.958022 20.007683-20.007683 0-11.234879 14.693654-34.618449 46.955428-59.415204 31.281447-24.042579 62.460564-36.621059 77.091796-36.621059 11.04966 0 20.007683-8.956999 20.007683-20.007683s-8.958022-20.007683-20.007683-20.007683c-31.737842 0-73.228815 23.199375-101.476159 44.909839-18.817578 14.46341-62.58643 52.297087-62.58643 91.14179C256.597099 523.619642 265.554098 532.577664 276.604782 532.577664z"
        fill="#272636"
        p-id="12438"></path>
</svg>