<?xml version="1.0" standalone="no"?><!DOCTYPE svg PUBLIC "-//W3C//DTD SVG 1.1//EN" "http://www.w3.org/Graphics/SVG/1.1/DTD/svg11.dtd">
<svg t="1713610940467"
     class="icon"
     viewBox="0 0 1024 1024"
     version="1.1"
     xmlns="http://www.w3.org/2000/svg"
     p-id="8163"
     xmlns:xlink="http://www.w3.org/1999/xlink"
     width="200"
     height="200">
    <path
        d="M959.539384 352.904539c0-13.530155-10.957563-24.50716-24.489764-24.50716l-99.458199 0c-13.530155-22.449291-28.77537-44.326555-45.64048-65.137533C709.090309 163.628708 609.765139 108.744703 510.286474 108.744703c-99.477642 0-198.822255 54.884005-279.662421 154.515143-16.866133 20.810978-32.111349 42.687218-45.641503 65.137533l-97.057523 0c-13.550621 0-24.489764 10.977006-24.489764 24.50716 0 184.016037 19.781532 364.637768 207.093639 442.277032l-3.220345 91.664699c-0.229221 6.66991 2.249227 13.110599 6.860245 17.876136 4.630461 4.801353 10.996448 7.507998 17.646915 7.507998l424.896176 0c6.632047 0 12.998035-2.706645 17.628496-7.507998 4.612041-4.765537 7.089465-11.206226 6.842849-17.876136l-3.009544-86.137823C938.690544 726.462466 959.539384 541.455869 959.539384 352.904539zM510.286474 157.759023c104.795764 0 202.159256 77.524654 266.379906 170.637332L243.906567 328.396355C308.129264 235.283678 405.47229 157.759023 510.286474 157.759023zM691.349249 863.21506 317.181431 863.21506l1.791809-51.339272c52.693106 14.787798 116.096135 22.982434 192.514595 22.982434 69.691245 0 128.388089-6.897084 178.203658-19.324114L691.349249 863.21506zM511.487835 785.844925c-325.59045 0-395.072941-143.30994-398.903176-408.471089l797.787932 0C906.560776 642.534985 837.059865 785.844925 511.487835 785.844925zM558.843376 249.347998l44.822858 22.411429c3.240811 1.600451 6.632047 2.362814 10.024308 2.362814 8.213056 0 16.122189-4.535293 20.048615-12.386098 5.547343-11.090593 1.047866-24.546046-10.024308-30.072923l-44.822858-22.410406c-11.07115-5.564739-24.543999-1.067308-30.070876 10.023284C543.293215 230.328829 547.772226 243.821121 558.843376 249.347998zM408.940274 266.880303c4.326539 0 8.69094-1.219781 12.559037-3.848655l35.388998-23.974018c10.252505-6.936993 12.920264-20.886703 5.964852-31.140231-6.955412-10.253528-20.86726-12.95915-31.120788-5.983271l-35.388998 24.010857c-10.233062 6.938016-12.939707 20.84884-5.964852 31.102369C394.705062 263.450181 401.756665 266.880303 408.940274 266.880303z"
        fill="#272636"
        p-id="8164"></path>
</svg>