<?xml version="1.0" standalone="no"?><!DOCTYPE svg PUBLIC "-//W3C//DTD SVG 1.1//EN" "http://www.w3.org/Graphics/SVG/1.1/DTD/svg11.dtd">
<svg t="1713686244339"
     class="icon"
     viewBox="0 0 1457 1024"
     version="1.1"
     xmlns="http://www.w3.org/2000/svg"
     p-id="24206"
     xmlns:xlink="http://www.w3.org/1999/xlink"
     width="284.5703125"
     height="200">
    <path
        d="M72.428308 191.842462a172.701538 172.701538 0 1 0 345.403077 0 172.701538 172.701538 0 0 0-345.403077 0zM938.141538 111.734154s62.227692-14.099692 84.007385 39.148308c20.48 38.518154 1.339077 75.067077-14.966154 87.276307-7.010462 7.404308-398.966154 199.955692-398.966154 199.955693l138.476308 152.457846 194.481231-195.899077c34.028308-25.245538 98.067692-26.151385 125.952 9.058461 30.956308 41.353846 173.961846 255.684923 254.897231 385.260308 13.548308 31.389538-3.623385 87.630769-35.997539 105.353846-36.470154 19.928615-72.467692 21.464615-101.966769 0-35.761231-43.953231-188.888615-246.823385-188.888615-246.823384s-170.692923 199.049846-177.388308 206.375384c-63.488 69.750154-165.336615 74.633846-234.850462 10.870154l-244.381538-224.216615c-69.513846-63.763692-92.435692-167.778462-28.790154-237.489231C369.309538 343.433846 751.576615 196.923077 938.141538 111.734154zM36.076308 946.215385h1399.650461v72.704H36.076308z"
        fill="#000000"
        p-id="24207"></path>
</svg>