<?xml version="1.0" standalone="no"?><!DOCTYPE svg PUBLIC "-//W3C//DTD SVG 1.1//EN" "http://www.w3.org/Graphics/SVG/1.1/DTD/svg11.dtd">
<svg t="1714120836819"
     class="icon"
     viewBox="0 0 1024 1024"
     version="1.1"
     xmlns="http://www.w3.org/2000/svg"
     p-id="6874"
     width="128"
     height="128"
     xmlns:xlink="http://www.w3.org/1999/xlink">
    <path
        d="M869.9648 445.8496H153.6a25.6 25.6 0 0 0-25.6 25.6v12.4672c0 211.968 171.8272 383.7952 383.7696 383.7952 211.968 0 383.7952-171.8272 383.7952-383.7952v-12.4672a25.6 25.6 0 0 0-25.6-25.6z"
        fill="#3f3f3f"
        p-id="6875"></path>
    <path
        d="M844.0832 497.0496l-0.1024 2.7648c-8.2688 176.3072-153.856 316.672-332.2112 316.672l-7.936-0.0768c-174.72-4.096-316.1088-142.9248-324.2496-316.5952l-0.128-2.7648h664.6272z"
        fill="#f9f9f9"
        p-id="6876"></path>
    <path
        d="M315.136 621.4656a25.6 25.6 0 0 1 36.1984 0.896A222.3104 222.3104 0 0 0 512.9728 691.2a222.336 222.336 0 0 0 159.872-67.072 25.6 25.6 0 0 1 36.7104 35.7376A273.536 273.536 0 0 1 512.9472 742.4c-76.288 0-147.6096-31.0528-198.6816-84.736a25.6 25.6 0 0 1 0.896-36.1984z"
        fill="#1EA4DD"
        p-id="6877"></path>
    <path
        d="M322.4832 835.6608h378.624a25.6 25.6 0 1 1 0 51.2h-378.624a25.6 25.6 0 1 1 0-51.2z"
        fill="#3f3f3f"
        p-id="6878"></path>
    <path
        d="M821.376 157.2096a25.6 25.6 0 0 1 2.9696 51.0208l-2.9696 0.1792H176.64a25.6 25.6 0 0 1-2.9952-51.0208L176.64 157.184h644.736zM821.376 283.7504a25.6 25.6 0 0 1 2.9696 51.0464l-2.9696 0.1536H176.64a25.6 25.6 0 0 1-2.9952-51.0208l2.9952-0.1792h644.736z"
        fill="#3f3f3f"
        p-id="6879"></path>
    <path
        d="M297.1392 182.8096v293.4528h-51.2V182.8096zM392.064 182.8096v293.4528h-51.2V182.8096z"
        fill="#3f3f3f"
        p-id="6880"></path>
</svg>