<?xml version="1.0" standalone="no"?><!DOCTYPE svg PUBLIC "-//W3C//DTD SVG 1.1//EN" "http://www.w3.org/Graphics/SVG/1.1/DTD/svg11.dtd">
<svg t="1713684471101"
     class="icon"
     viewBox="0 0 1024 1024"
     version="1.1"
     xmlns="http://www.w3.org/2000/svg"
     p-id="2452"
     xmlns:xlink="http://www.w3.org/1999/xlink"
     width="200"
     height="200">
    <path
        d="M803.80586667 462.66595555m-85.9136 0a85.9136 85.9136 0 1 0 171.8272 0 85.9136 85.9136 0 1 0-171.8272 0Z"
        fill="#050500"
        p-id="2453"></path>
    <path
        d="M623.36568889 499.47306667c-14.10844445 0-27.59111111-8.10097778-33.792-21.8112l-41.2672-91.35217778-135.89617778-47.44533334c-19.31946667-6.72426667-29.52533333-27.86417778-22.76693333-47.18364444 6.7584-19.31946667 27.9552-29.57084445 47.18364444-22.76693333l150.90346667 52.67911111c9.60284445 3.35644445 17.39662222 10.46755555 21.56088889 19.72906666l47.83217777 105.84746667c8.41955555 18.64817778 0.12515555 40.57315555-18.52302222 49.01546667a37.06538667 37.06538667 0 0 1-15.23484444 3.28817778zM381.69031111 759.86488889c-16.62293333 0-32.71111111-2.12764445-48.24177778-6.39431111-36.88675555-10.12622222-62.54364445-30.06008889-83.17155555-46.06862223-22.41422222-17.39662222-34.95253333-26.46471111-52.84977778-26.70364444-23.10826667-0.02275555-49.20888889 14.98453333-76.34488889 45.52248889-13.60782222 15.29173333-37.00053333 16.66844445-52.31502222 3.06062222-15.29173333-13.60782222-16.66844445-37.02328889-3.06062222-52.31502222 41.54026667-46.6944 85.58364445-70.36017778 130.95822222-70.36017778h1.76355556c43.56551111 0.58026667 72.10097778 22.72142222 97.28 42.25706667 17.85173333 13.84675555 34.69084445 26.91982222 57.35537777 33.16622222 38.37724445 10.49031111 85.75431111-1.2288 140.93653333-34.85013333 17.46488889-10.68373333 40.25457778-5.14275555 50.91555556 12.32213333 10.66097778 17.46488889 5.14275555 40.27733333-12.32213333 50.91555556-53.95342222 32.90453333-104.51626667 49.44782222-150.90346667 49.44782222z"
        fill="#050500"
        p-id="2454"></path>
    <path
        d="M803.46453333 735.16373333c-16.64568889 0-32.75662222-2.12764445-48.26453333-6.39431111-36.88675555-10.12622222-62.54364445-30.06008889-83.17155555-46.06862222-22.41422222-17.39662222-34.95253333-26.46471111-52.84977778-26.70364445h-0.72817778c-23.32444445 0-48.77653333 15.29173333-75.61671111 45.5224889-13.60782222 15.26897778-37.00053333 16.66844445-52.31502223 3.06062222-15.29173333-13.60782222-16.66844445-37.02328889-3.06062222-52.31502222 41.54026667-46.6944 85.58364445-70.36017778 130.95822222-70.36017778h1.76355556c43.56551111 0.58026667 72.10097778 22.72142222 97.28 42.25706666 17.85173333 13.84675555 34.69084445 26.91982222 57.35537778 33.16622222 38.4 10.49031111 85.75431111-1.20604445 140.93653333-34.85013333 17.46488889-10.66097778 40.27733333-5.14275555 50.91555556 12.32213333 10.66097778 17.46488889 5.14275555 40.27733333-12.32213333 50.91555556-53.9648 32.92728889-104.52764445 49.44782222-150.88071112 49.44782222z"
        fill="#050500"
        p-id="2455"></path>
    <path
        d="M378.39075555 649.9328c1.17191111 3.53848889 2.99235555 6.63324445 5.14275556 9.44355555 31.36853333-0.22755555 67.43608889-12.47004445 107.73617778-36.4544 40.66417778-44.61226667 83.70631111-67.3792 128.03413333-67.3792h1.76355556c29.30915555 0.4096 51.73475555 10.61546667 70.99733333 23.16515556 11.60533333-8.10097778 17.14631111-23.02862222 12.44728889-37.14844444l-27.4432-82.57991112c-5.71164445-17.2032-24.29155555-26.51022222-41.49475555-20.79857777l-263.82791112 87.67715555c-17.2032 5.71164445-26.51022222 24.29155555-20.79857778 41.49475556l27.4432 82.57991111z"
        fill="#050500"
        p-id="2456"></path>
</svg>