<?xml version="1.0" standalone="no"?><!DOCTYPE svg PUBLIC "-//W3C//DTD SVG 1.1//EN" "http://www.w3.org/Graphics/SVG/1.1/DTD/svg11.dtd">
<svg t="1713684465955"
     class="icon"
     viewBox="0 0 1024 1024"
     version="1.1"
     xmlns="http://www.w3.org/2000/svg"
     p-id="2291"
     xmlns:xlink="http://www.w3.org/1999/xlink"
     width="200"
     height="200">
    <path
        d="M536.68 221.84m-75.51 0a75.51 75.51 0 1 0 151.02 0 75.51 75.51 0 1 0-151.02 0Z"
        fill="#050500"
        p-id="2292"></path>
    <path
        d="M826.03 608.95m-39.69 0a39.69 39.69 0 1 0 79.38 0 39.69 39.69 0 1 0-79.38 0Z"
        fill="#050500"
        p-id="2293"></path>
    <path
        d="M760.3 402.58c-14.05 0-28-2.69-41.31-8.35-63.29-26.95-88.27-111.13-55.68-187.67h-0.01c32.59-76.49 110.55-116.98 173.86-89.95 63.28 26.95 88.26 111.13 55.69 187.67-25.74 60.42-79.79 98.3-132.55 98.3z m34.99-229.3c-26.81 0-57.04 23.49-72.06 58.81h-0.01c-18.2 42.74-8.45 89.55 21.29 102.23 29.77 12.7 70.21-12.81 88.41-55.57 18.2-42.74 8.46-89.57-21.27-102.23-5.19-2.2-10.7-3.24-16.36-3.24zM344.38 582.27l70.55 29.53c14.7 6.15 31.6-0.77 37.75-15.47l94.36-225.39c6.15-14.7-0.77-31.6-15.47-37.75l-70.55-29.53c-14.7-6.15-31.6 0.77-37.75 15.47l-94.36 225.39c-6.15 14.7 0.78 31.6 15.47 37.75z"
        fill="#050500"
        p-id="2294"></path>
    <path
        d="M152.5 900.46c-12.21 0-23.9-6.89-29.47-18.66-7.67-16.26-0.72-35.68 15.54-43.36 41.54-19.61 77.48-46.77 106.81-80.71 59.88-69.33 74.54-148.02 77.95-188.75 1.49-17.94 17.28-31.12 35.16-29.74 17.93 1.51 31.24 17.26 29.73 35.17-4.07 48.63-21.64 142.64-93.57 225.89-35.31 40.87-78.47 73.52-128.27 97.03a32.293 32.293 0 0 1-13.88 3.13zM541.31 916.65c-2.5 0-5.05-0.28-7.58-0.89-17.49-4.16-28.3-21.73-24.13-39.22 6.83-28.68 8.84-57.64 5.97-86.03-9.63-94.83-70.25-159-105.53-188.83-13.74-11.62-15.46-32.16-3.85-45.9 11.59-13.72 32.14-15.48 45.89-3.84 42.78 36.17 116.34 114.4 128.27 232 3.61 35.68 1.12 71.91-7.41 107.7-3.55 14.96-16.91 25.01-31.63 25.01zM623.46 507.06c-17.24 0-36.14-2.5-55.9-9.2-68.65-23.24-98.28-79.78-105.73-96.55-7.29-16.43 0.12-35.68 16.55-42.97 16.43-7.34 35.68 0.11 42.98 16.56 3.36 7.57 22.41 46.15 67.09 61.27 42.27 14.31 78.47-1.57 88.55-6.83 16.01-8.31 35.63-2.01 43.9 13.95 8.27 15.96 2.02 35.62-13.94 43.89-11.14 5.76-42.62 19.88-83.5 19.88z"
        fill="#050500"
        p-id="2295"></path>
    <path
        d="M577.66 423.66c-62.16 0-105.43-33.39-118.02-44.44-13.52-11.87-14.86-32.44-3-45.96 11.87-13.53 32.44-14.82 45.95-3.01 8.78 7.72 41.02 32.59 86.61 27.67 44.47-4.66 70.61-34.24 77.56-43.19 11-14.23 31.48-16.79 45.69-5.75 14.2 11.02 16.78 31.48 5.75 45.69-10.94 14.1-52.1 60.65-122.19 68.03-6.28 0.66-12.41 0.96-18.35 0.96zM648.16 608.55c-3.7 0-7.45-0.61-11.13-1.97-16.9-6.13-25.62-24.83-19.47-41.72l48.53-133.46c6.15-16.92 24.8-25.63 41.73-19.48 16.9 6.15 25.62 24.85 19.47 41.74l-48.53 133.46c-4.81 13.22-17.3 21.43-30.6 21.43z"
        fill="#050500"
        p-id="2296"></path>
    <path
        d="M665.08 549.67c-3.18 0-6.41-0.47-9.61-1.44-17.18-5.3-26.82-23.53-21.51-40.73 12.17-39.45 18.42-80.1 18.58-120.78 0.03-8.2 0.35-16.18 0.67-23.89 0.56-13.7 1.05-25.5-0.34-35.3-2.51-17.81 9.88-34.28 27.69-36.8 17.89-2.4 34.28 9.88 36.8 27.69 2.2 15.65 1.56 31.63 0.92 47.09-0.29 6.93-0.58 14.1-0.61 21.48-0.18 47.11-7.41 94.13-21.49 139.73-4.31 13.98-17.19 22.95-31.1 22.95z"
        fill="#050500"
        p-id="2297"></path>
    <path
        d="M680.55 512.42c-6.82 0-13.68-2.12-19.55-6.53-14.37-10.81-17.27-31.23-6.47-45.6a477.994 477.994 0 0 1 45.17-51.81l6.81-6.74c37.58-37.36 73.07-72.61 106.37-90.21 15.94-8.42 35.61-2.31 44 13.59 8.41 15.9 2.32 35.6-13.58 43.99-24.72 13.06-58.35 46.49-90.9 78.82l-6.84 6.78a413.545 413.545 0 0 0-38.97 44.71c-6.38 8.51-16.16 13-26.04 13z"
        fill="#050500"
        p-id="2298"></path>
    <path
        d="M719.228543 397.496893a10.17 18.42 18.384 1 0 11.618748-34.959838 10.17 18.42 18.384 1 0-11.618748 34.959838Z"
        fill="#ffffff"
        p-id="2299"></path>
</svg>