<?xml version="1.0" standalone="no"?><!DOCTYPE svg PUBLIC "-//W3C//DTD SVG 1.1//EN" "http://www.w3.org/Graphics/SVG/1.1/DTD/svg11.dtd">
<svg t="1713611002741"
     class="icon"
     viewBox="0 0 1024 1024"
     version="1.1"
     xmlns="http://www.w3.org/2000/svg"
     p-id="10469"
     xmlns:xlink="http://www.w3.org/1999/xlink"
     width="200"
     height="200">
    <path
        d="M231.2192 517.12h188.3136a20.48 20.48 0 0 0 0-40.96H231.2192a20.48 20.48 0 0 0 0 40.96zM278.528 665.1392a20.48 20.48 0 1 0 0-40.96h-47.3088a20.48 20.48 0 0 0 0 40.96z"
        fill="#333333"
        p-id="10470"></path>
    <path
        d="M809.4208 644.5056v-261.12a60.3648 60.3648 0 0 0-15.36-40.0384l-93.7984-106.6496a19.5584 19.5584 0 0 1-5.12-12.9536V159.232A60.672 60.672 0 0 0 634.88 98.6624H276.48a60.672 60.672 0 0 0-60.6208 60.5184v62.208a19.6096 19.6096 0 0 1-5.5296 13.6192L107.52 340.8896a60.2624 60.2624 0 0 0-17.1008 42.1376V829.44a60.672 60.672 0 0 0 60.6208 60.5184h105.3696c60.4672 51.2 190.72 56.6272 331.4688 56.6272 193.4336 0 367.0016-10.24 367.0016-135.1168 0-69.0688-56.576-129.3312-145.4592-166.9632z m-46.08-273.8688a19.5584 19.5584 0 0 1 5.12 12.9536v245.76a607.232 607.232 0 0 0-180.5824-26.112h-16.896V386.5088a19.5072 19.5072 0 0 1 5.12-13.5168l98.304-103.3728zM276.48 139.6224h358.4a19.6608 19.6608 0 0 1 19.6096 19.6096v58.8288H256.768V159.232A19.6608 19.6608 0 0 1 276.48 139.6224zM131.4304 829.44V383.0272a19.3024 19.3024 0 0 1 5.5296-13.6192l102.7072-105.8816a55.1424 55.1424 0 0 0 3.9424-4.5056h384.6144l-81.5616 85.76a60.2624 60.2624 0 0 0-16.64 41.728v219.392c-177.3568 15.36-309.1456 100.096-309.1456 205.568a108.1856 108.1856 0 0 0 6.4 37.5296H151.04a19.6608 19.6608 0 0 1-19.6096-19.5584z m456.448 76.2368c-201.2672 0-326.0416-15.7184-326.0416-94.1568 0-46.08 38.912-88.6784 100.352-119.296 16.7936 7.168 61.44 30.1056 56.32 70.0416a20.48 20.48 0 0 0 17.664 22.9376 15.36 15.36 0 0 0 2.6624 0 20.48 20.48 0 0 0 20.48-17.8688c5.9904-46.08-22.2208-76.8-48.64-95.232A515.84 515.84 0 0 1 504.9344 650.24c16.5376 8.9088 86.016 49.5104 73.0624 97.5872a20.48 20.48 0 0 0 14.3872 25.088 19.4048 19.4048 0 0 0 5.12 0.7168 20.48 20.48 0 0 0 19.7632-15.36c13.2096-48.896-17.152-88.064-47.5648-113.7152h17.92a601.1904 601.1904 0 0 1 70.7584 4.1984c12.4928 8.6016 68.4032 50.0224 53.76 91.4432a20.48 20.48 0 0 0 12.4928 26.112 19.8656 19.8656 0 0 0 6.8096 1.1776 20.48 20.48 0 0 0 19.3024-13.6192c12.4416-35.1232-0.512-66.8672-18.7904-91.392 106.6496 27.8528 181.7088 84.9408 181.7088 149.1456 0.256 78.2848-124.4672 94.0032-325.7856 94.0032z"
        fill="#333333"
        p-id="10471"></path>
</svg>