<?xml version="1.0" standalone="no"?><!DOCTYPE svg PUBLIC "-//W3C//DTD SVG 1.1//EN" "http://www.w3.org/Graphics/SVG/1.1/DTD/svg11.dtd">
<svg t="1713684453562"
     class="icon"
     viewBox="0 0 1024 1024"
     version="1.1"
     xmlns="http://www.w3.org/2000/svg"
     p-id="1820"
     xmlns:xlink="http://www.w3.org/1999/xlink"
     width="200"
     height="200">
    <path
        d="M580.02133333 109.64266667m-80.544 0a80.544 80.544 0 1 0 161.088 0 80.544 80.544 0 1 0-161.088 0Z"
        fill="#050500"
        p-id="1821"></path>
    <path
        d="M665.68617813 984.90424533a92.82133333 92.82133333 0 1 0 87.28552214-163.84272213 92.82133333 92.82133333 0 1 0-87.28552214 163.84272213Z"
        fill="#050500"
        p-id="1822"></path>
    <path
        d="M419.59466667 514.79466667L497.92 537.6c16.32 4.75733333 33.39733333-4.61866667 38.144-20.93866667l72.88533333-250.24c4.74666667-16.32-4.61866667-33.39733333-20.93866666-38.144l-78.32533334-22.816c-16.32-4.74666667-33.39733333 4.61866667-38.144 20.93866667l-72.87466666 250.24c-4.75733333 16.32 4.61866667 33.39733333 20.928 38.15466667z"
        fill="#050500"
        p-id="1823"></path>
    <path
        d="M340.07466667 706.02666667c-4.78933333 0-9.65333333-0.992-14.304-3.09333334-17.48266667-7.91466667-25.22666667-28.49066667-17.312-45.97333333l85.504-188.8c7.89333333-17.48266667 28.46933333-25.216 45.96266666-17.30133333 17.48266667 7.91466667 25.22666667 28.49066667 17.312 45.97333333l-85.504 188.8c-5.80266667 12.82133333-18.44266667 20.39466667-31.65866666 20.39466667zM391.776 930.47466667c-3.09333333 0-6.24-0.40533333-9.376-1.29066667-18.47466667-5.152-29.25866667-24.30933333-24.10666667-42.784l113.99466667-407.91466667c5.16266667-18.496 24.30933333-29.376 42.80533333-24.10666666 18.47466667 5.152 29.25866667 24.30933333 24.10666667 42.784L425.216 905.07733333c-4.29866667 15.34933333-18.25066667 25.39733333-33.44 25.39733334zM703.47733333 319.488a34.45333333 34.45333333 0 0 1-5.41866666-0.42666667l-135.38133334-21.36533333c-18.95466667-2.98666667-31.88266667-20.77866667-28.88533333-39.73333333 2.976-18.92266667 20.90666667-31.904 39.72266667-28.87466667l115.95733333 18.29333333 106.73066667-127.40266666c12.32-14.69866667 34.25066667-16.66133333 48.93866666-4.32 14.69866667 12.29866667 16.62933333 34.21866667 4.32 48.91733333l-119.36 142.47466667a34.70186667 34.70186667 0 0 1-26.624 12.43733333zM204.672 327.36c-16.704 0-31.424-12.07466667-34.22933333-29.07733333-3.12533333-18.92266667 9.70666667-36.81066667 28.62933333-39.936l292.128-48.10666667c18.92266667-3.12533333 36.8 9.70666667 39.91466667 28.62933333 3.12533333 18.92266667-9.70666667 36.81066667-28.62933334 39.936l-292.128 48.096c-1.90933333 0.29866667-3.808 0.45866667-5.68533333 0.45866667z"
        fill="#050500"
        p-id="1824"></path>
</svg>